<svg xmlns="http://www.w3.org/2000/svg" data-name="Layer 1" viewBox="0 0 100 125" x="0px" y="0px">

	<path d="M97.38,10.27,83.46,17.92V5.6L81.77,7.24c-.15.14-9,8.67-16.52,15.91v-20l-13,30.11h-.17V5.46h-2V33.24H50L37,3.12V23.2C29.44,16,20.59,7.38,20.45,7.24L18.75,5.6V18l-14-7.7V75.67l38.38,21.1v-.08a19.37,19.37,0,0,0,15.88,0v.08L96.86,76l.52-.28ZM81.46,19,61,30.27h0l-.65.36c6.08-5.81,16.91-16.25,21.11-20.3ZM63.25,12.79V25.07c-3.79,3.64-7,6.67-8.09,7.71l-.61.14ZM39,12.79l8.71,20.15L47,32.78c-1.12-1-4.25-4-8-7.65ZM20.75,10.32c4.19,4.06,15,14.51,21,20.31l-.67-.38h0L20.75,19.06Zm-14,3.33,34.38,18.9V93.39L6.75,74.49ZM43.13,94.48V33.58a19.46,19.46,0,0,0,15.88,0V94.48A17.43,17.43,0,0,1,43.13,94.48Zm52.25-20L61,93.39V32.55l34.38-18.9Z" fill="white"></path>
	
	<path d="M92.12,22.27,64.25,37.6V84.77L92.12,69.44Zm-2,46L66.25,81.38V38.78L90.12,25.66Z" fill="white"></path>
</svg>