<svg xmlns="http://www.w3.org/2000/svg" data-name="Layer 1" viewBox="0 0 100 125" x="0px" y="0px">

	<path fill="#fff" d="M98.35,27.76v0l0-.1a1,1,0,0,0-.07-.15l-.07-.09-.11-.12L98,27.19l-.15-.09-.07,0h0l0,0L50.64,11.16a7.61,7.61,0,0,0-7.73,1.77l-39,39h0A7.57,7.57,0,0,0,6.78,64.53L58,81.83a.95.95,0,0,0,.66,0l.1,0,.14-.07.09-.08,0,0,39-39a1,1,0,0,0,.29-.71V28s0,0,0-.06A1,1,0,0,0,98.35,27.76ZM58.08,65.86,14.46,51.14,51.91,13.7,95.53,28.42ZM44.31,14.36A5.59,5.59,0,0,1,49.78,13L12.35,50.43l-.73-.25a7.59,7.59,0,0,0-1.1-.27c-.17,0-.34,0-.51-.06s-.39,0-.59,0l-.21,0h-.3Zm-40.69,43a5.52,5.52,0,0,1,1.67-4,5.67,5.67,0,0,1,.74-.6l.27-.17a5.52,5.52,0,0,1,.56-.3l.31-.14A5.49,5.49,0,0,1,8,51.92l.39-.06A5.54,5.54,0,0,1,9,51.81h.4l.42,0,.39,0a5.82,5.82,0,0,1,.81.2L57.35,67.73V79.49L7.42,62.64A5.57,5.57,0,0,1,3.63,57.36ZM96.38,41.44l-37,37v-11l37-37Z"/>

</svg>