<?xml version="1.0" encoding="UTF-8" standalone="no"?>
<!DOCTYPE svg PUBLIC "-//W3C//DTD SVG 1.1//EN"
 "http://www.w3.org/Graphics/SVG/1.1/DTD/svg11.dtd">
<!-- Generated by graphviz version 2.40.1 (20161225.0304)
 -->
<!-- Title: dependencies Pages: 1 -->
<svg width="2295pt" height="284pt"
 viewBox="0.00 0.00 2295.00 284.00" xmlns="http://www.w3.org/2000/svg" xmlns:xlink="http://www.w3.org/1999/xlink">
<g id="graph0" class="graph" transform="scale(1 1) rotate(0) translate(4 280)">
<title>dependencies</title>
<polygon fill="#ffffff" stroke="transparent" points="-4,4 -4,-280 2291,-280 2291,4 -4,4"/>
<text text-anchor="start" x="1122.5091" y="-42.4" font-family="sans-serif" font-weight="bold" font-size="14.00" fill="#000000">Legend</text>
<polygon fill="#ffffb3" stroke="transparent" points="909.5,-10 909.5,-30 929.5,-30 929.5,-10 909.5,-10"/>
<text text-anchor="start" x="933.129" y="-15.4" font-family="sans-serif" font-size="14.00" fill="#000000"> &#160;Declarations</text>
<polygon fill="#8dd3c7" stroke="transparent" points="1022.5,-10 1022.5,-30 1042.5,-30 1042.5,-10 1022.5,-10"/>
<text text-anchor="start" x="1046.2251" y="-15.4" font-family="sans-serif" font-size="14.00" fill="#000000"> &#160;Module</text>
<polygon fill="#80b1d3" stroke="transparent" points="1108.5,-10 1108.5,-30 1128.5,-30 1128.5,-10 1108.5,-10"/>
<text text-anchor="start" x="1132.2812" y="-15.4" font-family="sans-serif" font-size="14.00" fill="#000000"> &#160;Bootstrap</text>
<polygon fill="#fdb462" stroke="transparent" points="1205.5,-10 1205.5,-30 1225.5,-30 1225.5,-10 1205.5,-10"/>
<text text-anchor="start" x="1229.1732" y="-15.4" font-family="sans-serif" font-size="14.00" fill="#000000"> &#160;Providers</text>
<polygon fill="#fb8072" stroke="transparent" points="1301.5,-10 1301.5,-30 1321.5,-30 1321.5,-10 1301.5,-10"/>
<text text-anchor="start" x="1325.2258" y="-15.4" font-family="sans-serif" font-size="14.00" fill="#000000"> &#160;Exports</text>
<g id="clust1" class="cluster">
<title>cluster_AppModule</title>
<polygon fill="none" stroke="#000000" stroke-dasharray="1,5" points="8,-70 8,-268 2279,-268 2279,-70 8,-70"/>
</g>
<g id="clust2" class="cluster">
<title>cluster_AppModule_declarations</title>
<polygon fill="none" stroke="#000000" points="661,-78 661,-130 2271,-130 2271,-78 661,-78"/>
</g>
<g id="clust13" class="cluster">
<title>cluster_AppModule_imports</title>
<polygon fill="none" stroke="#000000" points="509,-78 509,-130 653,-130 653,-78 509,-78"/>
</g>
<g id="clust15" class="cluster">
<title>cluster_AppModule_bootstrap</title>
<polygon fill="none" stroke="#000000" points="1081,-208 1081,-260 1205,-260 1205,-208 1081,-208"/>
</g>
<g id="clust16" class="cluster">
<title>cluster_AppModule_providers</title>
<polygon fill="none" stroke="#000000" points="16,-78 16,-130 501,-130 501,-78 16,-78"/>
</g>
<!-- AppComponent -->
<g id="node1" class="node">
<title>AppComponent</title>
<polygon fill="#ffffb3" stroke="#000000" points="2262.9399,-122 2157.0601,-122 2157.0601,-86 2262.9399,-86 2262.9399,-122"/>
<text text-anchor="middle" x="2210" y="-99.8" font-family="Times,serif" font-size="14.00" fill="#000000">AppComponent</text>
</g>
<!-- AppModule -->
<g id="node11" class="node">
<title>AppModule</title>
<polygon fill="#8dd3c7" stroke="#000000" points="1184.6571,-187 1181.6571,-191 1160.6571,-191 1157.6571,-187 1101.3429,-187 1101.3429,-151 1184.6571,-151 1184.6571,-187"/>
<text text-anchor="middle" x="1143" y="-164.8" font-family="Times,serif" font-size="14.00" fill="#000000">AppModule</text>
</g>
<!-- AppComponent&#45;&gt;AppModule -->
<g id="edge1" class="edge">
<title>AppComponent&#45;&gt;AppModule</title>
<path fill="none" stroke="#000000" d="M2210,-122.0908C2210,-145.1328 2210,-182 2210,-182 2210,-182 1194.8277,-182 1194.8277,-182"/>
<polygon fill="#000000" stroke="#000000" points="1194.8277,-178.5001 1184.8277,-182 1194.8276,-185.5001 1194.8277,-178.5001"/>
</g>
<!-- ContainerComponent -->
<g id="node2" class="node">
<title>ContainerComponent</title>
<polygon fill="#ffffb3" stroke="#000000" points="2139.0408,-122 2002.9592,-122 2002.9592,-86 2139.0408,-86 2139.0408,-122"/>
<text text-anchor="middle" x="2071" y="-99.8" font-family="Times,serif" font-size="14.00" fill="#000000">ContainerComponent</text>
</g>
<!-- ContainerComponent&#45;&gt;AppModule -->
<g id="edge2" class="edge">
<title>ContainerComponent&#45;&gt;AppModule</title>
<path fill="none" stroke="#000000" d="M2071,-122.0449C2071,-143.6623 2071,-177 2071,-177 2071,-177 1194.6771,-177 1194.6771,-177"/>
<polygon fill="#000000" stroke="#000000" points="1194.6771,-173.5001 1184.6771,-177 1194.677,-180.5001 1194.6771,-173.5001"/>
</g>
<!-- FlickrDetailsComponent -->
<g id="node3" class="node">
<title>FlickrDetailsComponent</title>
<polygon fill="#ffffb3" stroke="#000000" points="1985.4242,-122 1830.5758,-122 1830.5758,-86 1985.4242,-86 1985.4242,-122"/>
<text text-anchor="middle" x="1908" y="-99.8" font-family="Times,serif" font-size="14.00" fill="#000000">FlickrDetailsComponent</text>
</g>
<!-- FlickrDetailsComponent&#45;&gt;AppModule -->
<g id="edge3" class="edge">
<title>FlickrDetailsComponent&#45;&gt;AppModule</title>
<path fill="none" stroke="#000000" d="M1908,-122.2228C1908,-142.3652 1908,-172 1908,-172 1908,-172 1194.673,-172 1194.673,-172"/>
<polygon fill="#000000" stroke="#000000" points="1194.673,-168.5001 1184.673,-172 1194.673,-175.5001 1194.673,-168.5001"/>
</g>
<!-- FlickrFavouritesComponent -->
<g id="node4" class="node">
<title>FlickrFavouritesComponent</title>
<polygon fill="#ffffb3" stroke="#000000" points="1812.8696,-122 1639.1304,-122 1639.1304,-86 1812.8696,-86 1812.8696,-122"/>
<text text-anchor="middle" x="1726" y="-99.8" font-family="Times,serif" font-size="14.00" fill="#000000">FlickrFavouritesComponent</text>
</g>
<!-- FlickrFavouritesComponent&#45;&gt;AppModule -->
<g id="edge4" class="edge">
<title>FlickrFavouritesComponent&#45;&gt;AppModule</title>
<path fill="none" stroke="#000000" d="M1726,-122.2222C1726,-140.8285 1726,-167 1726,-167 1726,-167 1194.9279,-167 1194.9279,-167"/>
<polygon fill="#000000" stroke="#000000" points="1194.928,-163.5001 1184.9279,-167 1194.9279,-170.5001 1194.928,-163.5001"/>
</g>
<!-- FlickrListComponent -->
<g id="node5" class="node">
<title>FlickrListComponent</title>
<polygon fill="#ffffb3" stroke="#000000" points="1621.0505,-122 1484.9495,-122 1484.9495,-86 1621.0505,-86 1621.0505,-122"/>
<text text-anchor="middle" x="1553" y="-99.8" font-family="Times,serif" font-size="14.00" fill="#000000">FlickrListComponent</text>
</g>
<!-- FlickrListComponent&#45;&gt;AppModule -->
<g id="edge5" class="edge">
<title>FlickrListComponent&#45;&gt;AppModule</title>
<path fill="none" stroke="#000000" d="M1553,-122.0336C1553,-139.0597 1553,-162 1553,-162 1553,-162 1194.9504,-162 1194.9504,-162"/>
<polygon fill="#000000" stroke="#000000" points="1194.9504,-158.5001 1184.9504,-162 1194.9504,-165.5001 1194.9504,-158.5001"/>
</g>
<!-- FlickrSearchComponent -->
<g id="node6" class="node">
<title>FlickrSearchComponent</title>
<polygon fill="#ffffb3" stroke="#000000" points="1466.3585,-122 1313.6415,-122 1313.6415,-86 1466.3585,-86 1466.3585,-122"/>
<text text-anchor="middle" x="1390" y="-99.8" font-family="Times,serif" font-size="14.00" fill="#000000">FlickrSearchComponent</text>
</g>
<!-- FlickrSearchComponent&#45;&gt;AppModule -->
<g id="edge6" class="edge">
<title>FlickrSearchComponent&#45;&gt;AppModule</title>
<path fill="none" stroke="#000000" d="M1390,-122.2396C1390,-137.5706 1390,-157 1390,-157 1390,-157 1194.9002,-157 1194.9002,-157"/>
<polygon fill="#000000" stroke="#000000" points="1194.9002,-153.5001 1184.9002,-157 1194.9001,-160.5001 1194.9002,-153.5001"/>
</g>
<!-- FlickrTileComponent -->
<g id="node7" class="node">
<title>FlickrTileComponent</title>
<polygon fill="#ffffb3" stroke="#000000" points="1295.8202,-122 1158.1798,-122 1158.1798,-86 1295.8202,-86 1295.8202,-122"/>
<text text-anchor="middle" x="1227" y="-99.8" font-family="Times,serif" font-size="14.00" fill="#000000">FlickrTileComponent</text>
</g>
<!-- FlickrTileComponent&#45;&gt;AppModule -->
<g id="edge7" class="edge">
<title>FlickrTileComponent&#45;&gt;AppModule</title>
<path fill="none" stroke="#000000" d="M1171.5842,-122.1061C1171.5842,-122.1061 1171.5842,-140.991 1171.5842,-140.991"/>
<polygon fill="#000000" stroke="#000000" points="1168.0842,-140.9909 1171.5842,-150.991 1175.0842,-140.991 1168.0842,-140.9909"/>
</g>
<!-- LayoutHeaderComponent -->
<g id="node8" class="node">
<title>LayoutHeaderComponent</title>
<polygon fill="#ffffb3" stroke="#000000" points="1140.9017,-122 979.0983,-122 979.0983,-86 1140.9017,-86 1140.9017,-122"/>
<text text-anchor="middle" x="1060" y="-99.8" font-family="Times,serif" font-size="14.00" fill="#000000">LayoutHeaderComponent</text>
</g>
<!-- LayoutHeaderComponent&#45;&gt;AppModule -->
<g id="edge8" class="edge">
<title>LayoutHeaderComponent&#45;&gt;AppModule</title>
<path fill="none" stroke="#000000" d="M1120.9362,-122.1061C1120.9362,-122.1061 1120.9362,-140.991 1120.9362,-140.991"/>
<polygon fill="#000000" stroke="#000000" points="1117.4363,-140.9909 1120.9362,-150.991 1124.4363,-140.991 1117.4363,-140.9909"/>
</g>
<!-- SidebarComponent -->
<g id="node9" class="node">
<title>SidebarComponent</title>
<polygon fill="#ffffb3" stroke="#000000" points="961.0954,-122 836.9046,-122 836.9046,-86 961.0954,-86 961.0954,-122"/>
<text text-anchor="middle" x="899" y="-99.8" font-family="Times,serif" font-size="14.00" fill="#000000">SidebarComponent</text>
</g>
<!-- SidebarComponent&#45;&gt;AppModule -->
<g id="edge9" class="edge">
<title>SidebarComponent&#45;&gt;AppModule</title>
<path fill="none" stroke="#000000" d="M899,-122.2396C899,-137.5706 899,-157 899,-157 899,-157 1091.3321,-157 1091.3321,-157"/>
<polygon fill="#000000" stroke="#000000" points="1091.3322,-160.5001 1101.3321,-157 1091.3321,-153.5001 1091.3322,-160.5001"/>
</g>
<!-- SidebarItemComponent -->
<g id="node10" class="node">
<title>SidebarItemComponent</title>
<polygon fill="#ffffb3" stroke="#000000" points="818.752,-122 669.248,-122 669.248,-86 818.752,-86 818.752,-122"/>
<text text-anchor="middle" x="744" y="-99.8" font-family="Times,serif" font-size="14.00" fill="#000000">SidebarItemComponent</text>
</g>
<!-- SidebarItemComponent&#45;&gt;AppModule -->
<g id="edge10" class="edge">
<title>SidebarItemComponent&#45;&gt;AppModule</title>
<path fill="none" stroke="#000000" d="M744,-122.0336C744,-139.0597 744,-162 744,-162 744,-162 1091.0541,-162 1091.0541,-162"/>
<polygon fill="#000000" stroke="#000000" points="1091.0542,-165.5001 1101.0541,-162 1091.0541,-158.5001 1091.0542,-165.5001"/>
</g>
<!-- AppComponent  -->
<g id="node13" class="node">
<title>AppComponent </title>
<polygon fill="#80b1d3" stroke="#000000" points="1197.439,-252 1088.561,-252 1088.561,-216 1197.439,-216 1197.439,-252"/>
<text text-anchor="middle" x="1143" y="-229.8" font-family="Times,serif" font-size="14.00" fill="#000000">AppComponent </text>
</g>
<!-- AppModule&#45;&gt;AppComponent  -->
<g id="edge12" class="edge">
<title>AppModule&#45;&gt;AppComponent </title>
<path fill="none" stroke="#000000" stroke-dasharray="1,5" d="M1143,-187.1061C1143,-187.1061 1143,-205.991 1143,-205.991"/>
<polygon fill="#000000" stroke="#000000" points="1139.5001,-205.9909 1143,-215.991 1146.5001,-205.991 1139.5001,-205.9909"/>
</g>
<!-- AppRoutingModule -->
<g id="node12" class="node">
<title>AppRoutingModule</title>
<polygon fill="#8dd3c7" stroke="#000000" points="645.2744,-122 642.2744,-126 621.2744,-126 618.2744,-122 516.7256,-122 516.7256,-86 645.2744,-86 645.2744,-122"/>
<text text-anchor="middle" x="581" y="-99.8" font-family="Times,serif" font-size="14.00" fill="#000000">AppRoutingModule</text>
</g>
<!-- AppRoutingModule&#45;&gt;AppModule -->
<g id="edge11" class="edge">
<title>AppRoutingModule&#45;&gt;AppModule</title>
<path fill="none" stroke="#000000" d="M581,-122.2222C581,-140.8285 581,-167 581,-167 581,-167 1091.2178,-167 1091.2178,-167"/>
<polygon fill="#000000" stroke="#000000" points="1091.2178,-170.5001 1101.2178,-167 1091.2178,-163.5001 1091.2178,-170.5001"/>
</g>
<!-- FavouritesFactory -->
<g id="node14" class="node">
<title>FavouritesFactory</title>
<ellipse fill="#fdb462" stroke="#000000" cx="412" cy="-104" rx="81.0975" ry="18"/>
<text text-anchor="middle" x="412" y="-99.8" font-family="Times,serif" font-size="14.00" fill="#000000">FavouritesFactory</text>
</g>
<!-- FavouritesFactory&#45;&gt;AppModule -->
<g id="edge13" class="edge">
<title>FavouritesFactory&#45;&gt;AppModule</title>
<path fill="none" stroke="#000000" d="M412,-122.2228C412,-142.3652 412,-172 412,-172 412,-172 1091.3386,-172 1091.3386,-172"/>
<polygon fill="#000000" stroke="#000000" points="1091.3387,-175.5001 1101.3386,-172 1091.3386,-168.5001 1091.3387,-175.5001"/>
</g>
<!-- FlickrApiService -->
<g id="node15" class="node">
<title>FlickrApiService</title>
<ellipse fill="#fdb462" stroke="#000000" cx="235" cy="-104" rx="77.582" ry="18"/>
<text text-anchor="middle" x="235" y="-99.8" font-family="Times,serif" font-size="14.00" fill="#000000">FlickrApiService</text>
</g>
<!-- FlickrApiService&#45;&gt;AppModule -->
<g id="edge14" class="edge">
<title>FlickrApiService&#45;&gt;AppModule</title>
<path fill="none" stroke="#000000" d="M235,-122.0449C235,-143.6623 235,-177 235,-177 235,-177 1091.3265,-177 1091.3265,-177"/>
<polygon fill="#000000" stroke="#000000" points="1091.3265,-180.5001 1101.3265,-177 1091.3264,-173.5001 1091.3265,-180.5001"/>
</g>
<!-- PhotoCache -->
<g id="node16" class="node">
<title>PhotoCache</title>
<ellipse fill="#fdb462" stroke="#000000" cx="82" cy="-104" rx="57.9062" ry="18"/>
<text text-anchor="middle" x="82" y="-99.8" font-family="Times,serif" font-size="14.00" fill="#000000">PhotoCache</text>
</g>
<!-- PhotoCache&#45;&gt;AppModule -->
<g id="edge15" class="edge">
<title>PhotoCache&#45;&gt;AppModule</title>
<path fill="none" stroke="#000000" d="M82,-122.0908C82,-145.1328 82,-182 82,-182 82,-182 1091.0808,-182 1091.0808,-182"/>
<polygon fill="#000000" stroke="#000000" points="1091.0808,-185.5001 1101.0808,-182 1091.0807,-178.5001 1091.0808,-185.5001"/>
</g>
</g>
</svg>
