<?xml version="1.0" encoding="UTF-8" standalone="no"?>
<!DOCTYPE svg PUBLIC "-//W3C//DTD SVG 1.1//EN"
 "http://www.w3.org/Graphics/SVG/1.1/DTD/svg11.dtd">
<!-- Generated by graphviz version 2.40.1 (20161225.0304)
 -->
<!-- Title: dependencies Pages: 1 -->
<svg width="1591pt" height="284pt"
 viewBox="0.00 0.00 1591.00 284.00" xmlns="http://www.w3.org/2000/svg" xmlns:xlink="http://www.w3.org/1999/xlink">
<g id="graph0" class="graph" transform="scale(1 1) rotate(0) translate(4 280)">
<title>dependencies</title>
<polygon fill="#ffffff" stroke="transparent" points="-4,4 -4,-280 1587,-280 1587,4 -4,4"/>
<text text-anchor="start" x="770.5091" y="-42.4" font-family="sans-serif" font-weight="bold" font-size="14.00" fill="#000000">Legend</text>
<polygon fill="#ffffb3" stroke="transparent" points="557.5,-10 557.5,-30 577.5,-30 577.5,-10 557.5,-10"/>
<text text-anchor="start" x="581.129" y="-15.4" font-family="sans-serif" font-size="14.00" fill="#000000"> &#160;Declarations</text>
<polygon fill="#8dd3c7" stroke="transparent" points="670.5,-10 670.5,-30 690.5,-30 690.5,-10 670.5,-10"/>
<text text-anchor="start" x="694.2251" y="-15.4" font-family="sans-serif" font-size="14.00" fill="#000000"> &#160;Module</text>
<polygon fill="#80b1d3" stroke="transparent" points="756.5,-10 756.5,-30 776.5,-30 776.5,-10 756.5,-10"/>
<text text-anchor="start" x="780.2812" y="-15.4" font-family="sans-serif" font-size="14.00" fill="#000000"> &#160;Bootstrap</text>
<polygon fill="#fdb462" stroke="transparent" points="853.5,-10 853.5,-30 873.5,-30 873.5,-10 853.5,-10"/>
<text text-anchor="start" x="877.1732" y="-15.4" font-family="sans-serif" font-size="14.00" fill="#000000"> &#160;Providers</text>
<polygon fill="#fb8072" stroke="transparent" points="949.5,-10 949.5,-30 969.5,-30 969.5,-10 949.5,-10"/>
<text text-anchor="start" x="973.2258" y="-15.4" font-family="sans-serif" font-size="14.00" fill="#000000"> &#160;Exports</text>
<g id="clust1" class="cluster">
<title>cluster_AppModule</title>
<polygon fill="none" stroke="#000000" stroke-dasharray="1,5" points="8,-70 8,-268 1575,-268 1575,-70 8,-70"/>
</g>
<g id="clust2" class="cluster">
<title>cluster_AppModule_declarations</title>
<polygon fill="none" stroke="#000000" points="342,-78 342,-130 1567,-130 1567,-78 342,-78"/>
</g>
<g id="clust11" class="cluster">
<title>cluster_AppModule_imports</title>
<polygon fill="none" stroke="#000000" points="190,-78 190,-130 334,-130 334,-78 190,-78"/>
</g>
<g id="clust13" class="cluster">
<title>cluster_AppModule_bootstrap</title>
<polygon fill="none" stroke="#000000" points="759,-208 759,-260 883,-260 883,-208 759,-208"/>
</g>
<g id="clust14" class="cluster">
<title>cluster_AppModule_providers</title>
<polygon fill="none" stroke="#000000" points="16,-78 16,-130 182,-130 182,-78 16,-78"/>
</g>
<!-- AppComponent -->
<g id="node1" class="node">
<title>AppComponent</title>
<polygon fill="#ffffb3" stroke="#000000" points="1558.9399,-122 1453.0601,-122 1453.0601,-86 1558.9399,-86 1558.9399,-122"/>
<text text-anchor="middle" x="1506" y="-99.8" font-family="Times,serif" font-size="14.00" fill="#000000">AppComponent</text>
</g>
<!-- AppModule -->
<g id="node9" class="node">
<title>AppModule</title>
<polygon fill="#8dd3c7" stroke="#000000" points="862.6571,-187 859.6571,-191 838.6571,-191 835.6571,-187 779.3429,-187 779.3429,-151 862.6571,-151 862.6571,-187"/>
<text text-anchor="middle" x="821" y="-164.8" font-family="Times,serif" font-size="14.00" fill="#000000">AppModule</text>
</g>
<!-- AppComponent&#45;&gt;AppModule -->
<g id="edge1" class="edge">
<title>AppComponent&#45;&gt;AppModule</title>
<path fill="none" stroke="#000000" d="M1506,-122.0109C1506,-144.4852 1506,-180 1506,-180 1506,-180 872.8187,-180 872.8187,-180"/>
<polygon fill="#000000" stroke="#000000" points="872.8187,-176.5001 862.8187,-180 872.8186,-183.5001 872.8187,-176.5001"/>
</g>
<!-- BookCreateComponent -->
<g id="node2" class="node">
<title>BookCreateComponent</title>
<polygon fill="#ffffb3" stroke="#000000" points="1435.2007,-122 1286.7993,-122 1286.7993,-86 1435.2007,-86 1435.2007,-122"/>
<text text-anchor="middle" x="1361" y="-99.8" font-family="Times,serif" font-size="14.00" fill="#000000">BookCreateComponent</text>
</g>
<!-- BookCreateComponent&#45;&gt;AppModule -->
<g id="edge2" class="edge">
<title>BookCreateComponent&#45;&gt;AppModule</title>
<path fill="none" stroke="#000000" d="M1361,-122.1289C1361,-142.5724 1361,-173 1361,-173 1361,-173 872.9236,-173 872.9236,-173"/>
<polygon fill="#000000" stroke="#000000" points="872.9236,-169.5001 862.9236,-173 872.9235,-176.5001 872.9236,-169.5001"/>
</g>
<!-- BookListComponent -->
<g id="node3" class="node">
<title>BookListComponent</title>
<polygon fill="#ffffb3" stroke="#000000" points="1268.9482,-122 1135.0518,-122 1135.0518,-86 1268.9482,-86 1268.9482,-122"/>
<text text-anchor="middle" x="1202" y="-99.8" font-family="Times,serif" font-size="14.00" fill="#000000">BookListComponent</text>
</g>
<!-- BookListComponent&#45;&gt;AppModule -->
<g id="edge3" class="edge">
<title>BookListComponent&#45;&gt;AppModule</title>
<path fill="none" stroke="#000000" d="M1202,-122.2667C1202,-140.5552 1202,-166 1202,-166 1202,-166 872.8635,-166 872.8635,-166"/>
<polygon fill="#000000" stroke="#000000" points="872.8636,-162.5001 862.8635,-166 872.8635,-169.5001 872.8636,-162.5001"/>
</g>
<!-- ContainerComponent -->
<g id="node4" class="node">
<title>ContainerComponent</title>
<polygon fill="#ffffb3" stroke="#000000" points="1117.0408,-122 980.9592,-122 980.9592,-86 1117.0408,-86 1117.0408,-122"/>
<text text-anchor="middle" x="1049" y="-99.8" font-family="Times,serif" font-size="14.00" fill="#000000">ContainerComponent</text>
</g>
<!-- ContainerComponent&#45;&gt;AppModule -->
<g id="edge4" class="edge">
<title>ContainerComponent&#45;&gt;AppModule</title>
<path fill="none" stroke="#000000" d="M1049,-122.0091C1049,-138.0494 1049,-159 1049,-159 1049,-159 872.8187,-159 872.8187,-159"/>
<polygon fill="#000000" stroke="#000000" points="872.8187,-155.5001 862.8187,-159 872.8187,-162.5001 872.8187,-155.5001"/>
</g>
<!-- EnumToArrayPipe -->
<g id="node5" class="node">
<title>EnumToArrayPipe</title>
<polygon fill="#ffffb3" stroke="#000000" points="962.0269,-122 839.9731,-122 839.9731,-86 962.0269,-86 962.0269,-122"/>
<text text-anchor="middle" x="901" y="-99.8" font-family="Times,serif" font-size="14.00" fill="#000000">EnumToArrayPipe</text>
</g>
<!-- EnumToArrayPipe&#45;&gt;AppModule -->
<g id="edge5" class="edge">
<title>EnumToArrayPipe&#45;&gt;AppModule</title>
<path fill="none" stroke="#000000" d="M851.2826,-122.1061C851.2826,-122.1061 851.2826,-140.991 851.2826,-140.991"/>
<polygon fill="#000000" stroke="#000000" points="847.7827,-140.9909 851.2826,-150.991 854.7827,-140.991 847.7827,-140.9909"/>
</g>
<!-- LayoutHeaderComponent -->
<g id="node6" class="node">
<title>LayoutHeaderComponent</title>
<polygon fill="#ffffb3" stroke="#000000" points="821.9017,-122 660.0983,-122 660.0983,-86 821.9017,-86 821.9017,-122"/>
<text text-anchor="middle" x="741" y="-99.8" font-family="Times,serif" font-size="14.00" fill="#000000">LayoutHeaderComponent</text>
</g>
<!-- LayoutHeaderComponent&#45;&gt;AppModule -->
<g id="edge6" class="edge">
<title>LayoutHeaderComponent&#45;&gt;AppModule</title>
<path fill="none" stroke="#000000" d="M800.4362,-122.1061C800.4362,-122.1061 800.4362,-140.991 800.4362,-140.991"/>
<polygon fill="#000000" stroke="#000000" points="796.9363,-140.9909 800.4362,-150.991 803.9363,-140.991 796.9363,-140.9909"/>
</g>
<!-- SidebarComponent -->
<g id="node7" class="node">
<title>SidebarComponent</title>
<polygon fill="#ffffb3" stroke="#000000" points="642.0954,-122 517.9046,-122 517.9046,-86 642.0954,-86 642.0954,-122"/>
<text text-anchor="middle" x="580" y="-99.8" font-family="Times,serif" font-size="14.00" fill="#000000">SidebarComponent</text>
</g>
<!-- SidebarComponent&#45;&gt;AppModule -->
<g id="edge7" class="edge">
<title>SidebarComponent&#45;&gt;AppModule</title>
<path fill="none" stroke="#000000" d="M580,-122.0091C580,-138.0494 580,-159 580,-159 580,-159 769.2961,-159 769.2961,-159"/>
<polygon fill="#000000" stroke="#000000" points="769.2962,-162.5001 779.2961,-159 769.2961,-155.5001 769.2962,-162.5001"/>
</g>
<!-- SidebarItemComponent -->
<g id="node8" class="node">
<title>SidebarItemComponent</title>
<polygon fill="#ffffb3" stroke="#000000" points="499.752,-122 350.248,-122 350.248,-86 499.752,-86 499.752,-122"/>
<text text-anchor="middle" x="425" y="-99.8" font-family="Times,serif" font-size="14.00" fill="#000000">SidebarItemComponent</text>
</g>
<!-- SidebarItemComponent&#45;&gt;AppModule -->
<g id="edge8" class="edge">
<title>SidebarItemComponent&#45;&gt;AppModule</title>
<path fill="none" stroke="#000000" d="M425,-122.2667C425,-140.5552 425,-166 425,-166 425,-166 768.996,-166 768.996,-166"/>
<polygon fill="#000000" stroke="#000000" points="768.996,-169.5001 778.996,-166 768.9959,-162.5001 768.996,-169.5001"/>
</g>
<!-- AppComponent  -->
<g id="node11" class="node">
<title>AppComponent </title>
<polygon fill="#80b1d3" stroke="#000000" points="875.439,-252 766.561,-252 766.561,-216 875.439,-216 875.439,-252"/>
<text text-anchor="middle" x="821" y="-229.8" font-family="Times,serif" font-size="14.00" fill="#000000">AppComponent </text>
</g>
<!-- AppModule&#45;&gt;AppComponent  -->
<g id="edge10" class="edge">
<title>AppModule&#45;&gt;AppComponent </title>
<path fill="none" stroke="#000000" stroke-dasharray="1,5" d="M821,-187.1061C821,-187.1061 821,-205.991 821,-205.991"/>
<polygon fill="#000000" stroke="#000000" points="817.5001,-205.9909 821,-215.991 824.5001,-205.991 817.5001,-205.9909"/>
</g>
<!-- AppRoutingModule -->
<g id="node10" class="node">
<title>AppRoutingModule</title>
<polygon fill="#8dd3c7" stroke="#000000" points="326.2744,-122 323.2744,-126 302.2744,-126 299.2744,-122 197.7256,-122 197.7256,-86 326.2744,-86 326.2744,-122"/>
<text text-anchor="middle" x="262" y="-99.8" font-family="Times,serif" font-size="14.00" fill="#000000">AppRoutingModule</text>
</g>
<!-- AppRoutingModule&#45;&gt;AppModule -->
<g id="edge9" class="edge">
<title>AppRoutingModule&#45;&gt;AppModule</title>
<path fill="none" stroke="#000000" d="M262,-122.1289C262,-142.5724 262,-173 262,-173 262,-173 768.9841,-173 768.9841,-173"/>
<polygon fill="#000000" stroke="#000000" points="768.9842,-176.5001 778.9841,-173 768.9841,-169.5001 768.9842,-176.5001"/>
</g>
<!-- BookApiService -->
<g id="node12" class="node">
<title>BookApiService</title>
<ellipse fill="#fdb462" stroke="#000000" cx="99" cy="-104" rx="75.3021" ry="18"/>
<text text-anchor="middle" x="99" y="-99.8" font-family="Times,serif" font-size="14.00" fill="#000000">BookApiService</text>
</g>
<!-- BookApiService&#45;&gt;AppModule -->
<g id="edge11" class="edge">
<title>BookApiService&#45;&gt;AppModule</title>
<path fill="none" stroke="#000000" d="M99,-122.0109C99,-144.4852 99,-180 99,-180 99,-180 769.3256,-180 769.3256,-180"/>
<polygon fill="#000000" stroke="#000000" points="769.3256,-183.5001 779.3256,-180 769.3255,-176.5001 769.3256,-183.5001"/>
</g>
</g>
</svg>
